<?xml version="1.0" ?><!DOCTYPE svg  PUBLIC '-//W3C//DTD SVG 1.0//EN'  'http://www.w3.org/TR/2001/REC-SVG-20010904/DTD/svg10.dtd'><svg enable-background="new 0 0 100 100" height="100px" id="Layer_1" version="1.0" viewBox="0 0 100 100" width="100px" xml:space="preserve" xmlns="http://www.w3.org/2000/svg" xmlns:xlink="http://www.w3.org/1999/xlink"><path d="M83.333,10H16.667C13.001,10,10,13.001,10,16.667v66.667C10,86.998,13.001,90,16.667,90h66.666  C86.999,90,90,86.998,90,83.334V16.667C90,13.001,86.999,10,83.333,10z M83.333,83.334H56.667V56.666h16.666V50H56.667v-6.667  c0-5.524,4.479-10,10-10h6.666v-6.667h-6.666C57.464,26.667,50,34.126,50,43.333V50h-6.667v6.666H50v26.668H16.667V16.667h66.666  V83.334z"/></svg>