<?xml version="1.0" ?><!DOCTYPE svg  PUBLIC '-//W3C//DTD SVG 1.0//EN'  'http://www.w3.org/TR/2001/REC-SVG-20010904/DTD/svg10.dtd'><svg enable-background="new 0 0 100 100" height="100px" id="Layer_1" version="1.0" viewBox="0 0 100 100" width="100px" xml:space="preserve" xmlns="http://www.w3.org/2000/svg" xmlns:xlink="http://www.w3.org/1999/xlink"><path d="M66.501,33.502C62.275,29.278,56.442,26.666,50,26.666c-12.884,0-23.333,10.447-23.333,23.333S37.116,73.334,50,73.334  c11.748,0,21.445-8.697,23.066-20.001H50v-6.667h23.066H80v3.333c0,1.128-0.075,2.238-0.195,3.334  C78.145,68.334,65.442,80.001,50,80.001c-16.569,0-30-13.431-30-30.002c0-16.567,13.431-30,30-30c8.284,0,15.784,3.359,21.214,8.789  L66.501,33.502z"/></svg>