<?xml version="1.0" ?><!DOCTYPE svg  PUBLIC '-//W3C//DTD SVG 1.0//EN'  'http://www.w3.org/TR/2001/REC-SVG-20010904/DTD/svg10.dtd'><svg enable-background="new 0 0 100 100" height="100px" id="Layer_1" version="1.0" viewBox="0 0 100 100" width="100px" xml:space="preserve" xmlns="http://www.w3.org/2000/svg" xmlns:xlink="http://www.w3.org/1999/xlink"><path d="M44.524,33.167L31.667,78.166l6.412,1.835L44.72,56.76c3.015,5.986,7.982,9.906,13.613,9.906  C67.539,66.666,75,56.223,75,43.332c0-12.887-11.191-23.333-25-23.333c-13.815,0-25,10.446-25,23.333  c0,6.208,2.61,11.833,6.846,16.013l2.224-7.79c-1.523-2.43-2.402-5.232-2.402-8.223c0-9.188,8.223-16.666,18.333-16.666  c10.104,0,18.333,7.478,18.333,16.666c0,9.823-5.267,16.667-10,16.667c-4.622,0-9.732-6.565-9.954-16.043l2.559-8.957L44.524,33.167  z"/></svg>