<?xml version="1.0" ?><!DOCTYPE svg  PUBLIC '-//W3C//DTD SVG 1.0//EN'  'http://www.w3.org/TR/2001/REC-SVG-20010904/DTD/svg10.dtd'><svg enable-background="new 0 0 100 100" height="100px" id="Layer_1" version="1.0" viewBox="0 0 100 100" width="100px" xml:space="preserve" xmlns="http://www.w3.org/2000/svg" xmlns:xlink="http://www.w3.org/1999/xlink"><path d="M22.626,43.746l10-4.287l17.637,40.542L77.587,40.98c4.226-6.03,2.761-14.346-3.274-18.568  c-6.029-4.225-14.346-2.759-18.568,3.273l5.463,3.823c1.019-1.458,2.549-2.432,4.3-2.741c0.391-0.068,0.784-0.103,1.172-0.103  c1.354,0,2.676,0.414,3.812,1.209c1.459,1.021,2.432,2.549,2.741,4.302s-0.081,3.521-1.106,4.98L51.51,66.598L38.749,36.832  c-1.442-3.371-5.381-4.946-8.75-3.501l-10,4.287L22.626,43.746z"/></svg>